<svg xmlns="http://www.w3.org/2000/svg" viewBox="0 0 2364.88 1080.8"><defs><style>.cls-1{isolation:isolate;}.cls-2{fill:#982228;}.cls-3{fill:#b8242d;}.cls-4{fill:#f2905f;}.cls-5{fill:#d45b44;}.cls-22,.cls-5{opacity:0.4;}.cls-6{fill:#f8b791;}.cls-7{fill:#e8a07c;}.cls-8{fill:#6dc8e8;}.cls-9{fill:#342649;}.cls-10{fill:#fff;}.cls-11{fill:#d4263f;}.cls-12{fill:#e9425b;}.cls-13{fill:#a31832;}.cls-14{fill:#5f4e7c;}.cls-15{fill:#1e1728;}.cls-16{fill:#cdcae1;}.cls-17{fill:#5a4872;}.cls-18{fill:#9fa0b5;}.cls-19{fill:#81829e;}.cls-20{fill:#c5bebe;}.cls-21{fill:#3f3156;}.cls-22{fill:#4b3b63;}.cls-23{fill:#f3ad7b;}.cls-24,.cls-30{fill:none;}.cls-24{stroke:#5a4872;stroke-linejoin:round;stroke-width:12.26px;}.cls-24,.cls-30,.cls-31{stroke-linecap:round;}.cls-25{fill:#c6742e;}.cls-26{fill:#5b3f2c;mix-blend-mode:multiply;opacity:0.5;}.cls-27{fill:#f09a4c;}.cls-28{fill:#fcece3;}.cls-29{fill:#7e4e38;}.cls-30{stroke:#7e4e38;stroke-width:0.8px;}.cls-30,.cls-31{stroke-miterlimit:10;}.cls-31{font-size:162px;fill:#1d1d1b;stroke:#1d1d1b;stroke-width:2px;font-family:BlackRose, Black Rose;}.cls-32{letter-spacing:-0.28em;}</style></defs><g class="cls-1"><g id="Capa_1" data-name="Capa 1"><polygon class="cls-2" points="481.98 255.28 485.56 286.7 469.55 267.92 481.98 255.28"/><polygon class="cls-3" points="464.09 259.87 481.98 255.28 465.71 280.57 464.09 259.87"/><path class="cls-4" d="M563.88,245.61s-46-25.34-55-42.08c0,0-4.06-4.72-5.18-14.17l-2-26.68-18.24,16S465.6,217.19,442.51,264c0,0,92,36.79,70.1,13,0,0,4.64-22.45,23.45-37C536.06,240,552.21,243.43,563.88,245.61Z" transform="translate(-50.42 -15.41)"/><path class="cls-5" d="M557.51,244.38c.36-.61.7-1.22,1-1.82-12.38-7.22-42.58-25.81-49.68-39a21.4,21.4,0,0,1-2.93-5.27l-26.48-11c-2.17,4.62-5.15,10.94-8.77,18.56,10.89,11.93,34.62,37.34,50.89,50.3A62.3,62.3,0,0,1,536.06,240S547.09,242.33,557.51,244.38Z" transform="translate(-50.42 -15.41)"/><path class="cls-6" d="M468.16,166.39c-4.93-50.68,23.76-94.92,64.05-98.83,34.14-3.33,84-3.82,85.35,60.2,0,0-.89,21.41-3.8,34.92,0,0,1.12,5.95,9.19,21.28,0,0-2,6.6-9.05,7.26,0,0-5.17,43.83-10.93,53,0,0-1.9,3.33-7.78,3.33,0,0-27.84,2.14-72.53-12,0,0-8.69-3.08-10.49-11.86s-9.12-46.8-9.12-46.8Z" transform="translate(-50.42 -15.41)"/><path class="cls-7" d="M538.24,115.71c22.53,9.5,58.4,13.53,79.17,15.15.1-1.93.15-3.1.15-3.1-.32-15.63-3.56-27.4-8.74-36.23-31.1-3.67-60.42-7.23-60.42-7.23S505,101.7,538.24,115.71Z" transform="translate(-50.42 -15.41)"/><path class="cls-8" d="M617.56,171.87s-28.24-.65-41.52,10.32S532.4,177,532.4,177l-12.32,29.65s32.2,35.83,37.37,38.59,43.62,7.79,46.69,2.38,29.6-51.93,22-62C626.11,185.59,623,180.83,617.56,171.87Z" transform="translate(-50.42 -15.41)"/><path class="cls-9" d="M516.05,196.54s15.65,41,23,47l16.68,4,1.73-2.26s-20.71-40-25.05-58.73c0,0-2.37-4.34-5.68-4.34S510,187.22,516.05,196.54Z" transform="translate(-50.42 -15.41)"/><path class="cls-10" d="M576,182.19c-13.29,11-43.64-5.17-43.64-5.17l-2.17,5.22a28.2,28.2,0,0,0,15,10.4c15.22,4.09,27.18,2.56,41.49-6.11,11-6.64,29-5.65,36.84-4.83-1.45-2.3-3.49-5.58-6.05-9.83C617.56,171.87,589.32,171.22,576,182.19Z" transform="translate(-50.42 -15.41)"/><path class="cls-11" d="M556.82,111c-24.9,24-10.65,63.54-10.65,63.54,4.43,12.43,8,34.65-10.24,40.44s-61.11-14.79-61.11-14.79a101.36,101.36,0,1,1,158.92-83.43s-58.43-12.44-68-9.35Z" transform="translate(-50.42 -15.41)"/><path class="cls-12" d="M443,131.91a101.31,101.31,0,0,1,174.54-70A101.32,101.32,0,1,0,459.21,186.8,100.81,100.81,0,0,1,443,131.91Z" transform="translate(-50.42 -15.41)"/><path class="cls-13" d="M535.93,215c18.23-5.79,14.67-28,10.24-40.44,0,0-14.25-39.56,10.65-63.54l8.89-3.59c9.6-3.09,68,9.35,68,9.35a102.53,102.53,0,0,0-1-14.3c-24.51-3.11-61.61-12.93-77.22-9.28-22.68,5.35-29.79,43.56-20.9,85.8,8.76,41.64-69.35,12.46-71.54,11.65a104.18,104.18,0,0,0,11.76,9.56S517.7,220.77,535.93,215Z" transform="translate(-50.42 -15.41)"/><path class="cls-9" d="M572.38,107s53.44-6,59.83-7.68c0,0,22.22,22.1,20.45,23.46L649.1,125S605.73,120.75,572.38,107Z" transform="translate(-50.42 -15.41)"/><path class="cls-14" d="M652.66,122.75c.35-.27-.27-1.38-1.45-3-13.21-1.9-40.91-6.48-65.67-14.35L572.38,107c33.35,13.78,76.72,18,76.72,18Z" transform="translate(-50.42 -15.41)"/><path class="cls-15" d="M594.43,159.43c0,4.8,2.17,8.69,4.85,8.69s4.86-3.89,4.86-8.69-2.18-8.69-4.86-8.69S594.43,154.63,594.43,159.43Z" transform="translate(-50.42 -15.41)"/><path class="cls-15" d="M603.41,140a13.57,13.57,0,0,0-3.47-.84,12.61,12.61,0,0,0-3.68.15,11.24,11.24,0,0,0-6.38,3.8l0,0a1,1,0,0,1-1.61-1.22,13.87,13.87,0,0,1,7.14-5.71,16.05,16.05,0,0,1,4.65-.86,17.06,17.06,0,0,1,4.83.49,2.21,2.21,0,0,1-1.08,4.29,1.6,1.6,0,0,1-.31-.1Z" transform="translate(-50.42 -15.41)"/><path class="cls-12" d="M494.44,57.24c1.61,2.81,7.93,2.25,14.13-1.28s9.91-8.67,8.3-11.49-7.92-2.25-14.12,1.28S492.84,54.42,494.44,57.24Z" transform="translate(-50.42 -15.41)"/><path class="cls-12" d="M486.62,59s11.75,4.85,3.58,13S459,115,456.48,125c0,0-2.56,6.89-5.63,6.89s-3.06-7.73,0-16.13S471.29,62.86,486.62,59Z" transform="translate(-50.42 -15.41)"/><path class="cls-10" d="M966.74,414.54c0,23.39-11.75,42.34-26.25,42.34s-26.25-18.95-26.25-42.34,11.75-42.35,26.25-42.35S966.74,391.15,966.74,414.54Z" transform="translate(-50.42 -15.41)"/><rect class="cls-16" x="874.68" y="351.82" width="20.69" height="94.61" rx="9.2"/><path class="cls-13" d="M900.42,477.34s34,68.75,77.51,165.33c8.6,19.08-4.71,34.49-29.74,46.88L847.93,477.34Z" transform="translate(-50.42 -15.41)"/><path class="cls-17" d="M1043.05,811.38a141.66,141.66,0,1,0,141.66,141.69A141.69,141.69,0,0,0,1043.05,811.38Zm0,230.06a88.41,88.41,0,1,1,88.42-88.37A88.39,88.39,0,0,1,1043.05,1041.44Z" transform="translate(-50.42 -15.41)"/><path class="cls-9" d="M1043.05,820.38a132.66,132.66,0,1,0,132.64,132.69A132.68,132.68,0,0,0,1043.05,820.38Zm0,221.06a88.41,88.41,0,1,1,88.42-88.37A88.39,88.39,0,0,1,1043.05,1041.44Z" transform="translate(-50.42 -15.41)"/><path class="cls-16" d="M1043.05,858.18a94.88,94.88,0,1,0,94.86,94.89A94.85,94.85,0,0,0,1043.05,858.18Zm0,183.26a88.41,88.41,0,1,1,88.42-88.37A88.39,88.39,0,0,1,1043.05,1041.44Z" transform="translate(-50.42 -15.41)"/><path class="cls-18" d="M1098.87,953.07a55.81,55.81,0,1,1-55.82-55.84A55.81,55.81,0,0,1,1098.87,953.07Z" transform="translate(-50.42 -15.41)"/><path class="cls-19" d="M1037.91,865.07v176a32.55,32.55,0,0,0,10.3,0v-176a30.36,30.36,0,0,0-10.3,0Z" transform="translate(-50.42 -15.41)"/><path class="cls-19" d="M977.93,893.71l124.45,124.44a20.93,20.93,0,0,0,3.19-2.58,21.37,21.37,0,0,0,2.6-3.21L983.74,887.92a23.55,23.55,0,0,0-3.21,2.58A24.67,24.67,0,0,0,977.93,893.71Z" transform="translate(-50.42 -15.41)"/><path class="cls-19" d="M1108.17,893.71,983.74,1018.15a21.6,21.6,0,0,1-3.21-2.58,22,22,0,0,1-2.6-3.21l124.45-124.44a19.65,19.65,0,0,1,5.79,5.79Z" transform="translate(-50.42 -15.41)"/><path class="cls-19" d="M1131.05,957.22h-176a20.18,20.18,0,0,1-.44-4.15,21.13,21.13,0,0,1,.44-4.22h176a21.88,21.88,0,0,1,.42,4.22A21.64,21.64,0,0,1,1131.05,957.22Z" transform="translate(-50.42 -15.41)"/><path class="cls-16" d="M1088.28,953.07a45.22,45.22,0,1,1-45.23-45.26A45.23,45.23,0,0,1,1088.28,953.07Z" transform="translate(-50.42 -15.41)"/><path class="cls-10" d="M1062.72,953.07a19.67,19.67,0,1,1-19.67-19.7A19.66,19.66,0,0,1,1062.72,953.07Z" transform="translate(-50.42 -15.41)"/><path class="cls-19" d="M1050.7,952.92a8,8,0,0,1-4.34,10.52h0a8,8,0,0,1-10.52-4.34l-40.11-96.4a8,8,0,0,1,4.34-10.53h0a8.05,8.05,0,0,1,10.52,4.35Z" transform="translate(-50.42 -15.41)"/><polygon class="cls-16" points="983.92 883.4 957.91 893.78 914.51 783.69 940.52 773.31 983.92 883.4"/><path class="cls-13" d="M1143.4,832.35l19.19-10.08c-80.77-154.61-212.67-90.37-212.67-90.37S837.32,797,906.09,901.54C906.09,901.54,958.77,731.92,1143.4,832.35Z" transform="translate(-50.42 -15.41)"/><path class="cls-12" d="M942.15,752.2s124.55-60.63,205.7,77.81l14.74-7.74c-80.77-154.61-212.67-90.37-212.67-90.37s-49.61,28.69-62.85,78.56C905.86,773.19,942.15,752.2,942.15,752.2Z" transform="translate(-50.42 -15.41)"/><path class="cls-12" d="M616,904.63h123.1c33.46,0,74-24,90.09-53.33l36.25-66.07c16.09-29.33,25.11-80.39,20-113.46l-27-113.08c-5.07-33.07,11.72-36.14,20.43-39.81s28.23,17.76,43.37,47.59l36.5,71.93c15.14,29.83,16.8,79.43,3.69,110.21L902.61,889c-13.11,30.78-51.21,56-84.67,56H664.45c-33.45,0-96.76,3.23-101.85-7.85S599,904.63,616,904.63Z" transform="translate(-50.42 -15.41)"/><path class="cls-9" d="M289.26,686A8.43,8.43,0,0,0,301,688h0a8.42,8.42,0,0,0,2-11.74l-66.7-94.32a8.43,8.43,0,0,0-11.75-2h0a8.41,8.41,0,0,0-2,11.74Z" transform="translate(-50.42 -15.41)"/><path class="cls-10" d="M250.82,671.2l-8-7.18a24.51,24.51,0,0,0-34.63,1.82L175.66,702a24.53,24.53,0,0,0,1.81,34.63l8,7.18Z" transform="translate(-50.42 -15.41)"/><polygon class="cls-19" points="124.84 725.96 124.84 725.96 140.15 739.75 140.15 739.75 212.24 659.69 212.24 659.69 196.93 645.9 196.93 645.9 124.84 725.96"/><path class="cls-17" d="M357.67,811.38A141.66,141.66,0,1,0,499.31,953.07,141.68,141.68,0,0,0,357.67,811.38Zm0,230.06a88.41,88.41,0,1,1,88.41-88.37A88.39,88.39,0,0,1,357.67,1041.44Z" transform="translate(-50.42 -15.41)"/><path class="cls-9" d="M357.67,820.38A132.66,132.66,0,1,0,490.31,953.07,132.66,132.66,0,0,0,357.67,820.38Zm0,221.06a88.41,88.41,0,1,1,88.41-88.37A88.39,88.39,0,0,1,357.67,1041.44Z" transform="translate(-50.42 -15.41)"/><path class="cls-16" d="M357.67,858.18a94.88,94.88,0,1,0,94.86,94.89A94.86,94.86,0,0,0,357.67,858.18Zm0,183.26a88.41,88.41,0,1,1,88.41-88.37A88.39,88.39,0,0,1,357.67,1041.44Z" transform="translate(-50.42 -15.41)"/><path class="cls-18" d="M413.47,953.07a55.81,55.81,0,1,1-55.8-55.84A55.79,55.79,0,0,1,413.47,953.07Z" transform="translate(-50.42 -15.41)"/><path class="cls-19" d="M352.51,865.07v176a32.55,32.55,0,0,0,10.3,0v-176a30.36,30.36,0,0,0-10.3,0Z" transform="translate(-50.42 -15.41)"/><path class="cls-19" d="M292.55,893.71,417,1018.15a22.12,22.12,0,0,0,3.21-2.58,21.23,21.23,0,0,0,2.58-3.21L298.34,887.92a19,19,0,0,0-5.79,5.79Z" transform="translate(-50.42 -15.41)"/><path class="cls-19" d="M422.77,893.71,298.34,1018.15a21.6,21.6,0,0,1-3.21-2.58,22.54,22.54,0,0,1-2.58-3.21L417,887.92a23.55,23.55,0,0,1,3.21,2.58A22.26,22.26,0,0,1,422.77,893.71Z" transform="translate(-50.42 -15.41)"/><path class="cls-19" d="M445.65,957.22h-176a21.64,21.64,0,0,1-.42-4.15,21.88,21.88,0,0,1,.42-4.22h176a21.12,21.12,0,0,1,.43,4.22A20.89,20.89,0,0,1,445.65,957.22Z" transform="translate(-50.42 -15.41)"/><path class="cls-16" d="M402.88,953.07a45.22,45.22,0,1,1-45.21-45.26A45.23,45.23,0,0,1,402.88,953.07Z" transform="translate(-50.42 -15.41)"/><path class="cls-9" d="M126.78,920.35a24.43,24.43,0,0,0-2.88,11.52v4.83a24.52,24.52,0,0,0,24.53,24.52H576.67A24.52,24.52,0,0,0,601.2,936.7v-4.83a24.43,24.43,0,0,0-2.88-11.52Z" transform="translate(-50.42 -15.41)"/><path class="cls-17" d="M140.39,949v-4.84a24.39,24.39,0,0,1,2.88-11.51H601.2v-.73a24.43,24.43,0,0,0-2.88-11.52H126.78a24.43,24.43,0,0,0-2.88,11.52v4.83a24.52,24.52,0,0,0,19.49,24A24.39,24.39,0,0,1,140.39,949Z" transform="translate(-50.42 -15.41)"/><path class="cls-13" d="M430.25,251s9.58-18.39,12.26-19.71c0,0,49.08,5.57,76.65,38,0,0,2.09,24.31-.47,27.36C518.69,296.64,437.71,268.94,430.25,251Z" transform="translate(-50.42 -15.41)"/><path class="cls-10" d="M741.15,826.93l-19.69-4.66s-9.39-12.53-12.18-18.26l-17.49,7.81s.12,22.28-2.29,30.27C689.5,842.09,736.65,839.2,741.15,826.93Z" transform="translate(-50.42 -15.41)"/><path class="cls-13" d="M724.47,820.69s19.24,6.42,58,13.63c0,0,36.24-6,28.86,26.21l-123.61,2.52s-3.67-16.92,1.43-31.72C689.17,831.33,733.49,831.33,724.47,820.69Z" transform="translate(-50.42 -15.41)"/><path class="cls-20" d="M812.26,853.27s5.54,1.85,3.86,9.78H687.74s-3.62-6.41-1.31-10.86c0,0,79.11,5,96.66,3.94S812.26,853.27,812.26,853.27Z" transform="translate(-50.42 -15.41)"/><path class="cls-13" d="M728.53,821.89s-1.76,6.61-10,6.48c0,0-5-13.16-2.46-16.42C716,812,717.51,807.1,728.53,821.89Z" transform="translate(-50.42 -15.41)"/><path class="cls-9" d="M627.69,887.92s3.56-61.37,0-76.54-16.49-60.08-58.23-99.52c0,0,39.74-69.64,34-84.74S262.8,571.51,292.55,660.7L533.08,878.48Z" transform="translate(-50.42 -15.41)"/><path class="cls-9" d="M837.32,855.59l-209.63,2.59s-49.79-61.47-85.34-76.64c-28.77-12.28,17,91.41,35.48,131.38H796l41.37-40.1Z" transform="translate(-50.42 -15.41)"/><path class="cls-11" d="M603.51,887.92h123.1c33.45,0,74-24,90.09-53.34l36.24-66.07c16.1-29.33,25.11-80.39,20-113.45L845.94,542c-5.08-33.07,11.71-36.15,20.42-39.81s28.23,17.76,43.37,47.59l36.5,71.93c15.14,29.83,16.8,79.43,3.69,110.21L890.14,872.24c-13.11,30.78-51.21,56-84.67,56H652c-33.46,0-96.77,3.23-101.85-7.85S586.55,887.92,603.51,887.92Z" transform="translate(-50.42 -15.41)"/><path class="cls-11" d="M635.77,920.35H136.28S125.86,720.31,302,657.08H628.21v47.36s-1.14,22.84-24.78,23.51c0,0-30.55-3.1-30,10.12,1.07,27.44,14.86,92.39,62.37,120.11Z" transform="translate(-50.42 -15.41)"/><path class="cls-13" d="M592.09,882.71H179s-3.95,20.63,4.73,37.64H592.09Z" transform="translate(-50.42 -15.41)"/><path class="cls-12" d="M203.27,907.81c-38.83,0-19.4-50.19-19.4-50.19,65.42-179,204.26-180.41,204.26-180.41,209.8-21.34,216.44,230.6,216.44,230.6Z" transform="translate(-50.42 -15.41)"/><path class="cls-11" d="M196.3,907.16a36,36,0,0,0,7,.65H561.78C554,842.5,520.28,688.86,377,705.72c0,0-120.06,1.37-176.63,180.41A94.4,94.4,0,0,0,196.3,907.16Z" transform="translate(-50.42 -15.41)"/><path class="cls-11" d="M933.91,364.57c-.36-.3-115-3.55-115,52.05,0,0,0,21.13,31.3,77.42,0,0,33.67-7.89,60.39-12.61l-.65-12.13a207.55,207.55,0,0,0,24-6.18Z" transform="translate(-50.42 -15.41)"/><path class="cls-12" d="M830,425.81c0-45,75.13-51.44,103.95-52.1v-9.14c-.36-.3-115-3.55-115,52.05,0,0,0,21.13,31.3,77.42l5.41-1.25C830,444.31,830,425.81,830,425.81Z" transform="translate(-50.42 -15.41)"/><path class="cls-16" d="M845.94,399.49a18,18,0,1,1-18-18A18,18,0,0,1,845.94,399.49Z" transform="translate(-50.42 -15.41)"/><path class="cls-21" d="M738.46,812.58l-2-218.46c-8.29-25.84-28.3-21.93-28.3-21.93s-79.95-10-29,46.67l6.56,197.55S700.35,833.28,738.46,812.58Z" transform="translate(-50.42 -15.41)"/><path class="cls-10" d="M697.16,832.34l-19.68-4.63s-9.39-12.5-12.18-18.26l-17.52,7.78s.15,22.28-2.26,30.31C645.52,847.54,692.67,844.68,697.16,832.34Z" transform="translate(-50.42 -15.41)"/><path class="cls-11" d="M684.55,827.36s-1.77,6.55-10,6.49c0,0-5-13.16-2.46-16.46C672.05,817.39,673.53,812.51,684.55,827.36Z" transform="translate(-50.42 -15.41)"/><path class="cls-17" d="M410.36,508.83s-20.79,105.65,40.42,115.79c0,0,165.23,9.34,205.8,9.34,0,0,42.6-36,28-65.3,0,0-138.81-24.24-151.47-27.57l3.06-32.26Z" transform="translate(-50.42 -15.41)"/><path class="cls-22" d="M534.86,541.09l3-32.26H464.25l-55.52,36.29c-.25,24.17,3.69,54.19,22.22,69.81,21.2-11.18,47.94-38.78,61.17-54.77C509.43,539.33,543.93,543,544,543,539.54,542.16,536.34,541.46,534.86,541.09Z" transform="translate(-50.42 -15.41)"/><path class="cls-17" d="M694.48,818.05l15.43-223.93c-8.27-25.84-28.58-25.84-28.58-25.84s-68.34,7.24-28.75,50.58l-10.9,203S656.36,838.69,694.48,818.05Z" transform="translate(-50.42 -15.41)"/><path class="cls-11" d="M680.49,826.14a178.78,178.78,0,0,0,58,13.62s36.24-6,28.86,26.22l-123.61,2.55s-3.67-17,1.43-31.72C645.19,836.81,689.52,836.81,680.49,826.14Z" transform="translate(-50.42 -15.41)"/><path class="cls-10" d="M768.28,858.72s5.54,1.81,3.84,9.81H643.76s-3.62-6.45-1.31-10.88c0,0,79.11,5,96.65,3.93S768.28,858.72,768.28,858.72Z" transform="translate(-50.42 -15.41)"/><path class="cls-11" d="M391.61,374.54c5-71.2,28.08-129.78,50.9-126.9,60.62,7.64,88.29,25.18,92.73,149.81a210.48,210.48,0,0,1-2.16,44.06c-5.38,34.56,17.26,92.91.32,96.31,0,0-30.34-9.91-50.61,4.1-74.07,51.2-82.11,49.84-82.11,49.84s-9.81-1.1-9.07-17.2,0-200,0-200" transform="translate(-50.42 -15.41)"/><path class="cls-13" d="M533.08,441.51a210.48,210.48,0,0,0,2.16-44.06v-.05l-80.12-119s-19.94,27.57-12.61,62.1c6.37,30,77.31,137.32,95.13,161.25C535.2,485.63,531,455.07,533.08,441.51Z" transform="translate(-50.42 -15.41)"/><path class="cls-23" d="M467.61,340.51s56.83,93,65.48,104.53a47.54,47.54,0,0,0,45.32,17.76s125-5.57,153.67-11.35c0,0,18.94,3.05,25.25-10.48s14.9-25.05,20.84-25.53,3.67,16.9,12.35,18,0-26.44,0-26.44-9.44-12.68-16.38-12.11S741.71,415,727.8,428.79c0,0-144.64-2.8-156.16-5.48L528,331.11Z" transform="translate(-50.42 -15.41)"/><path class="cls-5" d="M521.8,427.93l39-27.61-17.09-36.08-46.07,25C506.13,403,515,417.17,521.8,427.93Z" transform="translate(-50.42 -15.41)"/><path class="cls-12" d="M478.29,267s-28.51,1.75-29.73,29.67,44.53,117.9,44.53,117.9,31.24-9.68,64.36-33.05C557.45,381.49,515.28,257.87,478.29,267Z" transform="translate(-50.42 -15.41)"/><path class="cls-16" d="M827.93,403.67a4.19,4.19,0,0,1-4-3l-9.53-33.23a16.91,16.91,0,0,0-8-9.11l-46.28-19.88a4.17,4.17,0,1,1,3.3-7.67l46.27,19.89c5.5,2.35,11.1,8.71,12.75,14.46L832,398.34a4.17,4.17,0,0,1-2.86,5.16A4.23,4.23,0,0,1,827.93,403.67Z" transform="translate(-50.42 -15.41)"/><polyline class="cls-24" points="262.03 568.5 328.62 653.02 482.67 653.02"/><path class="cls-9" d="M147.58,580.7A12.42,12.42,0,0,0,160,593.12H375.72a12.42,12.42,0,0,0,12.41-12.42h0a12.42,12.42,0,0,0-12.41-12.42H160a12.42,12.42,0,0,0-12.41,12.42Z" transform="translate(-50.42 -15.41)"/><path class="cls-9" d="M295.47,887.92a4.72,4.72,0,0,0,4.72,4.71H425.44a4.71,4.71,0,0,0,4.72-4.71h0a4.72,4.72,0,0,0-4.72-4.73H300.19a4.73,4.73,0,0,0-4.72,4.73Z" transform="translate(-50.42 -15.41)"/><path class="cls-9" d="M295.47,869.35a4.73,4.73,0,0,0,4.72,4.72H425.44a4.72,4.72,0,0,0,4.72-4.72h0a4.72,4.72,0,0,0-4.72-4.72H300.19a4.72,4.72,0,0,0-4.72,4.72Z" transform="translate(-50.42 -15.41)"/><path class="cls-9" d="M295.47,850.78a4.72,4.72,0,0,0,4.72,4.72H425.44a4.72,4.72,0,0,0,4.72-4.72h0a4.72,4.72,0,0,0-4.72-4.72H300.19a4.72,4.72,0,0,0-4.72,4.72Z" transform="translate(-50.42 -15.41)"/><path class="cls-9" d="M295.47,832.21a4.72,4.72,0,0,0,4.72,4.72H425.44a4.72,4.72,0,0,0,4.72-4.72h0a4.71,4.71,0,0,0-4.72-4.71H300.19a4.71,4.71,0,0,0-4.72,4.71Z" transform="translate(-50.42 -15.41)"/><path class="cls-25" d="M375,564.59a3.69,3.69,0,0,1-3.69,3.69H168.45a3.69,3.69,0,0,1-3.69-3.69V376.48a3.69,3.69,0,0,1,3.69-3.69H371.32a3.69,3.69,0,0,1,3.69,3.69Z" transform="translate(-50.42 -15.41)"/><path class="cls-26" d="M375,418.89V376.48a3.69,3.69,0,0,0-3.69-3.69H168.45a3.69,3.69,0,0,0-3.69,3.69v42.41Z" transform="translate(-50.42 -15.41)"/><path class="cls-27" d="M20.29,357.38H223.16a3.69,3.69,0,0,1,3.69,3.69V549.19a3.68,3.68,0,0,1-3.68,3.68H20.28a3.69,3.69,0,0,1-3.69-3.69V361.07A3.69,3.69,0,0,1,20.29,357.38Z"/><path class="cls-26" d="M277.26,418.89V376.48a3.69,3.69,0,0,0-3.68-3.69H70.7A3.69,3.69,0,0,0,67,376.48v42.41Z" transform="translate(-50.42 -15.41)"/><path class="cls-25" d="M391.61,392.15a3.9,3.9,0,0,1-4.09,3.69H168.45a3.69,3.69,0,0,1-3.69-3.69V353.42a3.69,3.69,0,0,1,3.69-3.69H387.52a3.9,3.9,0,0,1,4.09,3.69Z" transform="translate(-50.42 -15.41)"/><path class="cls-27" d="M277.26,392.15a3.69,3.69,0,0,1-3.68,3.69H54.5a3.9,3.9,0,0,1-4.08-3.69V353.42a3.9,3.9,0,0,1,4.08-3.69H273.58a3.69,3.69,0,0,1,3.68,3.69Z" transform="translate(-50.42 -15.41)"/><rect class="cls-28" x="92.21" y="334.32" width="44.26" height="218.55"/><path class="cls-29" d="M209.65,535.73a2.43,2.43,0,0,1,2.43,2.45v17a2.44,2.44,0,0,1-2.43,2.45h-17a2.45,2.45,0,0,1-2.45-2.45v-17a2.45,2.45,0,0,1,2.45-2.45h17m0-1.4h-17a3.86,3.86,0,0,0-3.85,3.85v17a3.86,3.86,0,0,0,3.85,3.84h17a3.86,3.86,0,0,0,3.85-3.84v-17a3.86,3.86,0,0,0-3.85-3.85Z" transform="translate(-50.42 -15.41)"/><path class="cls-29" d="M239.32,535.73a2.45,2.45,0,0,1,2.45,2.45v17a2.45,2.45,0,0,1-2.45,2.45h-17a2.45,2.45,0,0,1-2.44-2.45v-17a2.45,2.45,0,0,1,2.44-2.45h17m0-1.4h-17a3.86,3.86,0,0,0-3.85,3.85v17a3.86,3.86,0,0,0,3.85,3.84h17a3.86,3.86,0,0,0,3.85-3.84v-17a3.86,3.86,0,0,0-3.85-3.85Z" transform="translate(-50.42 -15.41)"/><polygon class="cls-29" points="209.69 527.43 206.32 521.73 202.95 527.43 205.44 527.43 205.44 537.09 207.2 537.09 207.2 527.43 209.69 527.43"/><polygon class="cls-29" points="217.18 527.43 213.81 521.73 210.44 527.43 212.93 527.43 212.93 537.09 214.69 537.09 214.69 527.43 217.18 527.43"/><rect class="cls-29" x="203.77" y="538.92" width="12.58" height="1.53"/><path class="cls-29" d="M269,535.73a2.45,2.45,0,0,1,2.45,2.45v17a2.45,2.45,0,0,1-2.45,2.45H252a2.45,2.45,0,0,1-2.45-2.45v-17a2.45,2.45,0,0,1,2.45-2.45h17m0-1.4H252a3.88,3.88,0,0,0-3.87,3.85v17A3.87,3.87,0,0,0,252,559h17a3.86,3.86,0,0,0,3.85-3.84v-17a3.86,3.86,0,0,0-3.85-3.85Z" transform="translate(-50.42 -15.41)"/><path class="cls-29" d="M201.61,545.1l-1.13-.18v10.57h1.22V545.1Z" transform="translate(-50.42 -15.41)"/><rect class="cls-29" x="148.2" y="540.08" width="4.95" height="0.66"/><path class="cls-29" d="M201.15,541.05h-1.59l1.35-3.59h-5.66c0,3.59,2.21,6.59,4.6,7.44Z" transform="translate(-50.42 -15.41)"/><path class="cls-29" d="M202.06,537.46l-1,2.9,1.9,0L200.47,545a2.61,2.61,0,0,0,.68.11c2.82,0,5.9-3.46,5.9-7.69Z" transform="translate(-50.42 -15.41)"/><path class="cls-29" d="M230.81,537.29s-8.63,1.44-9.6,6.82a2.37,2.37,0,0,1,3,1.22,2.42,2.42,0,0,1,4,0s1.7-1.38,2.61,0c.92-1.38,2.61,0,2.61,0a2.42,2.42,0,0,1,4,0,2.37,2.37,0,0,1,3-1.22C239.44,538.73,230.81,537.29,230.81,537.29Z" transform="translate(-50.42 -15.41)"/><path class="cls-30" d="M235.21,553a2.2,2.2,0,0,1-4.4,0V541.92" transform="translate(-50.42 -15.41)"/><path class="cls-9" d="M773.06,419.05l95.64,11.49a9.21,9.21,0,0,1-2.2,18.28l-.74-.12-94.38-19.27a5.26,5.26,0,0,1,1.68-10.38Z" transform="translate(-50.42 -15.41)"/><path class="cls-9" d="M787.58,423.33A16.3,16.3,0,1,1,771.28,407,16.3,16.3,0,0,1,787.58,423.33Z" transform="translate(-50.42 -15.41)"/><path class="cls-14" d="M781.48,423.32a10.2,10.2,0,1,1-10.2-10.21A10.2,10.2,0,0,1,781.48,423.32Z" transform="translate(-50.42 -15.41)"/><path class="cls-28" d="M493.09,414.54s31.24-9.68,64.36-33.05c0,0-2.51-7.35-6.83-18.32l-64.41,37.39C490.33,409.12,493.09,414.54,493.09,414.54Z" transform="translate(-50.42 -15.41)"/><path class="cls-16" d="M752.06,307.54v54.09a28.57,28.57,0,0,0,0-54.09Z" transform="translate(-50.42 -15.41)"/><path class="cls-9" d="M748.48,359.85a3.32,3.32,0,0,0,3.32,3.32h0a3.32,3.32,0,0,0,3.32-3.32V309.31A3.32,3.32,0,0,0,751.8,306h0a3.32,3.32,0,0,0-3.32,3.32Z" transform="translate(-50.42 -15.41)"/><text class="cls-31" transform="translate(940.85 422.16)">Delicious <tspan class="cls-32" x="0" y="416" xml:space="preserve">												</tspan><tspan x="432" y="416">Delivery</tspan></text><text x="-50.42" y="-15.41"/></g></g></svg>